<svg aria-hidden="true" style="position: absolute; width: 0; height: 0; overflow: hidden;" version="1.1" xmlns="http://www.w3.org/2000/svg" xmlns:xlink="http://www.w3.org/1999/xlink">
<defs>
<symbol id="icon-Logo-1" viewBox="0 0 32 32">
<path fill="#6d1600" style="fill: var(--color1, #6d1600)" d="M0 15.2h7.019c1.602 0 3.261-0.098 4.624-0.938 1.066-0.656 1.962-1.554 2.619-2.619 0.84-1.363 0.938-3.022 0.938-4.624v-7.019h-10.4c-1.273 0-2.494 0.506-3.394 1.406s-1.406 2.121-1.406 3.394v10.4z"></path>
<path fill="#6d1600" style="fill: var(--color1, #6d1600)" d="M32 16c0 8.837-7.163 16-16 16-8.568 0-15.563-6.735-15.981-15.2h7c1.602 0 3.261 0.098 4.624 0.938 0.977 0.601 1.813 1.406 2.452 2.359s1.065 2.032 1.25 3.164l0.050 0.306c0.043 0.126 0.125 0.236 0.233 0.314 0.066 0.047 0.14 0.081 0.217 0.1 0.050 0.013 0.102 0.019 0.155 0.019 0.134 0 0.264-0.042 0.372-0.119s0.19-0.187 0.233-0.314l0.050-0.306c0.27-1.654 1.053-3.182 2.239-4.367s2.713-1.968 4.367-2.238l0.307-0.050c0.126-0.043 0.236-0.125 0.314-0.233s0.119-0.239 0.119-0.372-0.041-0.264-0.119-0.372c-0.045-0.064-0.102-0.118-0.166-0.161-0.046-0.030-0.095-0.055-0.148-0.073l-0.307-0.050c-1.132-0.185-2.211-0.611-3.164-1.25s-1.757-1.475-2.359-2.452c-0.84-1.363-0.938-3.022-0.938-4.624v-7.019h10.4c1.273 0 2.494 0.506 3.394 1.406s1.406 2.121 1.406 3.394v11.2z"></path>
</symbol>
<symbol id="icon-Logo-2" viewBox="0 0 32 32">
<path fill="#fff" style="fill: var(--color2, #fff)" d="M0 15.2h7.019c1.602 0 3.261-0.098 4.624-0.938 1.066-0.656 1.962-1.553 2.619-2.619 0.84-1.363 0.938-3.022 0.938-4.624v-7.019h-10.4c-1.273 0-2.494 0.506-3.394 1.406s-1.406 2.121-1.406 3.394v10.4z"></path>
<path fill="#fff" style="fill: var(--color2, #fff)" d="M32 16c0 8.837-7.163 16-16 16-8.568 0-15.563-6.735-15.981-15.2h7c1.602 0 3.261 0.098 4.624 0.938 0.977 0.601 1.813 1.406 2.452 2.359s1.065 2.032 1.25 3.164l0.050 0.306c0.043 0.126 0.125 0.236 0.233 0.314 0.066 0.047 0.14 0.081 0.217 0.1 0.050 0.013 0.102 0.019 0.155 0.019 0.134 0 0.264-0.042 0.372-0.119s0.19-0.187 0.233-0.314l0.050-0.306c0.27-1.654 1.053-3.182 2.239-4.367s2.713-1.968 4.367-2.238l0.307-0.050c0.126-0.043 0.236-0.125 0.314-0.233s0.119-0.239 0.119-0.372-0.041-0.264-0.119-0.372c-0.045-0.063-0.102-0.118-0.166-0.161-0.046-0.030-0.095-0.055-0.148-0.073l-0.307-0.050c-1.132-0.185-2.211-0.611-3.164-1.25s-1.757-1.475-2.359-2.452c-0.84-1.363-0.938-3.022-0.938-4.624v-7.019h10.4c1.273 0 2.494 0.506 3.394 1.406s1.406 2.121 1.406 3.394v11.2z"></path>
</symbol>
</defs>
</svg>
