<svg aria-hidden="true" style="position: absolute; width: 0; height: 0; overflow: hidden;" version="1.1" xmlns="http://www.w3.org/2000/svg" xmlns:xlink="http://www.w3.org/1999/xlink">
<defs>
<symbol id="icon-sarch" viewBox="0 0 32 32">
<path d="M21.293 22.708c-1.972 1.651-4.512 2.647-7.281 2.647-6.263 0-11.345-5.083-11.345-11.344s5.083-11.344 11.345-11.344c6.26 0 11.344 5.083 11.344 11.344 0 2.771-0.996 5.312-2.647 7.281l6.332 6.333c0.195 0.195 0.292 0.451 0.292 0.708 0 0.783-0.716 1-1 1-0.256 0-0.512-0.097-0.708-0.293zM14.012 4.668c-5.157 0-9.343 4.187-9.343 9.343s4.185 9.343 9.343 9.343c5.155 0 9.343-4.187 9.343-9.343s-4.188-9.343-9.343-9.343z"></path>
</symbol>
<symbol id="icon-shopping" viewBox="0 0 32 32">
<path d="M21.333 5.333h10.667v25.333h-32v-25.333h10.667v-2.667c0-0.736 0.597-1.333 1.333-1.333h8c0.736 0 1.333 0.597 1.333 1.333v2.667zM30.667 6.667h-29.333v22.667h29.333v-22.667zM26.667 12v1.333h-21.333v-1.333h21.333zM20 3.333c0-0.177-0.071-0.347-0.195-0.472-0.125-0.124-0.295-0.195-0.472-0.195h-6.667c-0.177 0-0.347 0.071-0.472 0.195-0.124 0.125-0.195 0.295-0.195 0.472v2h8v-2z"></path>
</symbol>
</defs>
</svg>
