<svg aria-hidden="true" style="position: absolute; width: 0; height: 0; overflow: hidden;" version="1.1" xmlns="http://www.w3.org/2000/svg" xmlns:xlink="http://www.w3.org/1999/xlink">
<defs>
<symbol id="icon-Facebook" viewBox="0 0 32 32">
<path fill="#fff" style="fill: var(--color1, #fff)" opacity="0.08" d="M0 0h32v32h-32v-32z"></path>
<path fill="#fff" style="fill: var(--color1, #fff)" d="M19.915 17.042l0.456-2.897h-2.809v-1.883c0-0.792 0.392-1.566 1.646-1.566h1.295v-2.467c-0.754-0.12-1.516-0.185-2.28-0.195-2.312 0-3.821 1.39-3.821 3.902v2.209h-2.562v2.897h2.562v7.007h3.16v-7.007h2.353z"></path>
</symbol>
<symbol id="icon-Twitter" viewBox="0 0 32 32">
<path fill="#fff" style="fill: var(--color1, #fff)" opacity="0.08" d="M0 0h32v32h-32v-32z"></path>
<path fill="#fff" style="fill: var(--color1, #fff)" d="M23.942 10.934c-0.528 0.228-1.084 0.386-1.653 0.472 0.266-0.046 0.657-0.525 0.813-0.719 0.237-0.293 0.417-0.626 0.532-0.985 0-0.027 0.027-0.065 0-0.084-0.013-0.007-0.028-0.011-0.044-0.011s-0.030 0.004-0.044 0.011c-0.618 0.335-1.275 0.59-1.957 0.761-0.024 0.007-0.049 0.008-0.073 0.002s-0.046-0.018-0.064-0.036c-0.053-0.063-0.11-0.123-0.171-0.179-0.278-0.249-0.593-0.453-0.935-0.605-0.461-0.189-0.958-0.271-1.455-0.24-0.482 0.030-0.953 0.16-1.383 0.38-0.423 0.232-0.796 0.548-1.094 0.928-0.314 0.391-0.541 0.845-0.665 1.331-0.102 0.462-0.114 0.94-0.034 1.407 0 0.080 0 0.091-0.068 0.080-2.709-0.399-4.931-1.361-6.748-3.426-0.080-0.091-0.122-0.091-0.186 0-0.79 1.202-0.407 3.103 0.581 4.042 0.133 0.125 0.27 0.247 0.414 0.361-0.453-0.032-0.895-0.155-1.299-0.361-0.076-0.049-0.118-0.023-0.122 0.068-0.011 0.126-0.011 0.254 0 0.38 0.079 0.606 0.318 1.181 0.692 1.664s0.869 0.859 1.436 1.089c0.138 0.059 0.282 0.104 0.429 0.133-0.419 0.083-0.849 0.095-1.273 0.038-0.091-0.019-0.125 0.030-0.091 0.118 0.558 1.521 1.77 1.985 2.659 2.244 0.122 0.019 0.243 0.019 0.38 0.049 0 0 0 0-0.023 0.023-0.262 0.479-1.322 0.802-1.808 0.97-0.888 0.319-1.834 0.441-2.773 0.357-0.148-0.023-0.182-0.019-0.22 0s0 0.061 0.042 0.099c0.19 0.125 0.38 0.236 0.578 0.342 0.588 0.321 1.21 0.576 1.854 0.761 3.336 0.92 7.089 0.243 9.593-2.247 1.968-1.955 2.66-4.651 2.66-7.351 0-0.103 0.125-0.163 0.198-0.217 0.498-0.388 0.937-0.847 1.303-1.361 0.063-0.077 0.096-0.174 0.091-0.274 0-0.057 0-0.046-0.072-0.015z"></path>
</symbol>
<symbol id="icon-Instagram" viewBox="0 0 32 32">
<path fill="#fff" style="fill: var(--color1, #fff)" opacity="0.08" d="M0 0h32v32h-32v-32z"></path>
<path fill="#fff" style="fill: var(--color1, #fff)" d="M13.337 16.041c0-1.474 1.194-2.669 2.668-2.669s2.668 1.195 2.668 2.669c0 1.474-1.195 2.669-2.668 2.669s-2.668-1.195-2.668-2.669zM11.894 16.041c0 2.271 1.84 4.112 4.11 4.112s4.11-1.841 4.11-4.112c0-2.271-1.84-4.112-4.11-4.112s-4.11 1.841-4.11 4.112zM19.317 11.766c-0 0.19 0.056 0.376 0.162 0.534s0.255 0.281 0.431 0.354c0.175 0.073 0.369 0.092 0.555 0.055s0.358-0.128 0.492-0.263 0.226-0.305 0.263-0.492c0.037-0.186 0.018-0.38-0.054-0.555s-0.196-0.326-0.354-0.431-0.344-0.162-0.534-0.162c-0.255 0-0.499 0.101-0.679 0.281s-0.281 0.424-0.282 0.679zM12.771 22.559c-0.78-0.036-1.205-0.166-1.487-0.275-0.374-0.146-0.64-0.319-0.921-0.599s-0.454-0.547-0.599-0.92c-0.11-0.282-0.24-0.706-0.275-1.487-0.039-0.844-0.047-1.098-0.047-3.236s0.008-2.391 0.047-3.236c0.036-0.781 0.167-1.204 0.275-1.487 0.145-0.374 0.319-0.641 0.599-0.921s0.546-0.454 0.921-0.599c0.282-0.11 0.706-0.24 1.487-0.275 0.844-0.039 1.097-0.047 3.234-0.047s2.39 0.008 3.235 0.047c0.78 0.036 1.204 0.167 1.486 0.275 0.374 0.145 0.64 0.319 0.921 0.599s0.453 0.547 0.599 0.921c0.11 0.282 0.24 0.706 0.275 1.487 0.039 0.845 0.047 1.098 0.047 3.236s-0.008 2.391-0.047 3.236c-0.036 0.781-0.166 1.205-0.275 1.487-0.146 0.374-0.319 0.641-0.599 0.92s-0.547 0.453-0.921 0.599c-0.282 0.11-0.706 0.24-1.486 0.275-0.844 0.039-1.097 0.047-3.235 0.047s-2.39-0.008-3.234-0.047zM12.705 8.082c-0.852 0.039-1.434 0.174-1.943 0.372-0.527 0.204-0.972 0.479-1.418 0.924s-0.719 0.892-0.923 1.418c-0.198 0.509-0.333 1.091-0.372 1.944-0.039 0.854-0.048 1.127-0.048 3.301s0.009 2.447 0.048 3.301c0.039 0.852 0.174 1.435 0.372 1.944 0.204 0.527 0.478 0.974 0.923 1.418s0.891 0.719 1.418 0.924c0.509 0.198 1.091 0.333 1.943 0.372 0.854 0.039 1.126 0.048 3.3 0.048s2.447-0.009 3.3-0.048c0.852-0.039 1.434-0.174 1.943-0.372 0.526-0.205 0.972-0.479 1.418-0.924s0.718-0.892 0.923-1.418c0.198-0.509 0.334-1.091 0.372-1.944 0.039-0.854 0.048-1.127 0.048-3.301s-0.009-2.447-0.048-3.301c-0.039-0.852-0.174-1.435-0.372-1.944-0.205-0.527-0.479-0.973-0.923-1.418s-0.892-0.719-1.417-0.924c-0.51-0.198-1.091-0.334-1.943-0.372-0.854-0.039-1.126-0.048-3.3-0.048s-2.447 0.009-3.301 0.048z"></path>
</symbol>
<symbol id="icon-Linkedin" viewBox="0 0 32 32">
<path fill="#fff" style="fill: var(--color1, #fff)" opacity="0.08" d="M0 0h32v32h-32v-32z"></path>
<path fill="#fff" style="fill: var(--color1, #fff)" d="M12.319 22.484v-8.644h-2.871v8.644h2.871zM10.884 12.66c1.001 0 1.624-0.664 1.624-1.493-0.019-0.848-0.623-1.494-1.605-1.494s-1.624 0.645-1.624 1.494c0 0.83 0.623 1.493 1.586 1.493l0.019 0zM13.908 22.484h2.87v-4.827c0-0.258 0.019-0.517 0.095-0.701 0.207-0.516 0.68-1.051 1.473-1.051 1.038 0 1.454 0.793 1.454 1.955v4.624h2.87v-4.956c0-2.655-1.416-3.891-3.305-3.891-1.548 0-2.228 0.866-2.606 1.456h0.019v-1.253h-2.87c0.037 0.811-0 8.644-0 8.644z"></path>
</symbol>
<symbol id="icon-Youtube" viewBox="0 0 32 32">
<path fill="#fff" style="fill: var(--color1, #fff)" opacity="0.08" d="M0 0h32v32h-32v-32z"></path>
<path fill="#fff" style="fill: var(--color1, #fff)" d="M24.9 11.599c-0.209-0.785-0.827-1.405-1.613-1.617-1.422-0.381-7.127-0.381-7.127-0.381s-5.702 0-7.127 0.381c-0.783 0.209-1.401 0.829-1.613 1.617-0.38 1.425-0.38 4.401-0.38 4.401s0 2.976 0.38 4.401c0.209 0.785 0.827 1.405 1.613 1.617 1.425 0.381 7.127 0.381 7.127 0.381s5.705 0 7.127-0.381c0.783-0.209 1.401-0.829 1.613-1.617 0.38-1.425 0.38-4.401 0.38-4.401s0-2.976-0.38-4.401z"></path>
<path fill="#282a3a" style="fill: var(--color2, #282a3a)" d="M14.338 18.743l4.738-2.743-4.738-2.743v5.487z"></path>
</symbol>
</defs>
</svg>
